<svg viewBox="0 0 128 128" xmlns="http://www.w3.org/2000/svg" xmlns:xlink="http://www.w3.org/1999/xlink"><linearGradient id="a" gradientUnits="userSpaceOnUse" x1="-4.0457" x2="13.6935" y1="59.1255" y2="39.7489"><stop offset="0" stop-color="#1c93c1"/><stop offset=".1625" stop-color="#2391c0"/><stop offset=".4043" stop-color="#378bbe"/><stop offset=".6955" stop-color="#587eb9"/><stop offset=".9952" stop-color="#7f6cb1"/></linearGradient><linearGradient id="b" gradientUnits="userSpaceOnUse" x1="1.0845" x2="30.9575" y1="74.4602" y2="43.2847"><stop offset="0" stop-color="#c757a7"/><stop offset=".04551384" stop-color="#ca5a9e"/><stop offset=".2413" stop-color="#d66779"/><stop offset=".428" stop-color="#e17357"/><stop offset=".6004" stop-color="#e97c3a"/><stop offset=".7556" stop-color="#ef8324"/><stop offset=".8879" stop-color="#f28817"/><stop offset=".9819" stop-color="#f48912"/></linearGradient><linearGradient id="c" gradientUnits="userSpaceOnUse" x1="14.3795" x2="31.4869" y1="92.4959" y2="74.7805"><stop offset="0" stop-color="#1c93c1"/><stop offset=".2156" stop-color="#2d8ebf"/><stop offset=".6399" stop-color="#587eb9"/><stop offset=".9952" stop-color="#7f6cb1"/></linearGradient><path d="m0 42.6h22.2l-22.2 21.9z" fill="url(#a)"/><path d="m0 85.4 42.8-42.8h-21.2l-21.6 21.3z" fill="url(#b)"/><path d="m42.4 85.4-21.2-21.2-21.2 21.2z" fill="url(#c)"/><path d="m50 75.6v-22.8h5.1v9.8l9.3-9.8h5.8l-9.3 9.8 9.3 13h-5.8l-6.8-9.5-2.5 2.5v7z"/><path d="m77.5 58.2c-5.1 0-9.2 3.9-9.2 8.7s4.1 8.7 9.2 8.7 9.2-3.9 9.2-8.7-4.1-8.7-9.2-8.7zm0 13.6c-2.7 0-4.9-2.2-4.9-4.9s2.2-4.9 4.9-4.9 4.9 2.2 4.9 4.9-2.2 4.9-4.9 4.9z"/><path d="m87.9 53.8h5.1v4.5h4v4.2h-4v8.2s1.5 2.1 4 0v4.5s-4 2-7.5 0c0 0-1.6-1.6-1.6-3.5 0-1.8 0-9.2 0-9.2h-2v-4.4l2 .1z"/><path d="m98.5 51.9h4.9v23.7h-4.9z"/><path d="m105.2 51.9h5v4.2h-5z"/><path d="m105.2 58.3h5v17.3h-5z"/><path d="m111.9 58.3h5.1v2.7s4.7-7.2 10.4 0l.5 1.5v13.1h-5v-10.6s-2.8-5.3-5.9 0v10.6h-5.1z"/></svg>